<?xml version="1.0" standalone="no"?>
<!DOCTYPE svg PUBLIC "-//W3C//DTD SVG 20010904//EN"
 "http://www.w3.org/TR/2001/REC-SVG-20010904/DTD/svg10.dtd">
<svg version="1.0" xmlns="http://www.w3.org/2000/svg"
 width="225.000000pt" height="225.000000pt" viewBox="0 0 225.000000 225.000000"
 preserveAspectRatio="xMidYMid meet">

<g transform="translate(0.000000,225.000000) scale(0.100000,-0.100000)"
fill="#000000" stroke="none">
<path d="M995 2239 c-160 -17 -364 -93 -506 -190 -81 -55 -198 -166 -260 -248
-65 -87 -153 -264 -184 -374 -53 -189 -53 -415 0 -605 31 -109 119 -287 184
-373 168 -221 422 -377 701 -430 84 -15 306 -15 390 0 153 30 313 95 441 181
82 56 233 207 289 289 86 128 151 288 181 441 15 84 15 306 0 390 -42 220
-143 418 -294 577 -96 101 -182 164 -312 228 -132 66 -250 101 -386 115 -112
11 -129 11 -244 -1z m281 -80 c148 -20 306 -82 439 -172 71 -48 199 -170 244
-232 l32 -45 -84 0 c-80 0 -85 -1 -90 -22 -4 -13 -12 -32 -20 -42 -13 -18 -16
-17 -69 23 l-55 41 -123 0 -122 0 -113 -82 -114 -83 0 -450 0 -450 102 -75
102 -75 275 -5 275 -5 -79 -82 c-414 -431 -1088 -431 -1502 0 l-79 82 300 5
300 5 103 75 102 75 0 450 -1 450 -111 83 -112 82 -308 0 -309 0 32 45 c45 62
173 184 244 232 137 92 304 156 460 176 65 8 207 6 281 -4z m825 -658 c40
-106 60 -206 66 -322 9 -188 -26 -361 -106 -514 l-36 -70 -3 163 -2 162 -140
0 -140 0 0 -80 0 -80 -86 0 c-81 0 -87 1 -115 29 l-29 29 0 275 0 274 -40 28
c-22 15 -40 29 -40 31 0 2 70 4 155 4 l155 0 0 -85 0 -85 130 0 129 0 6 33 c9
56 45 286 45 294 1 18 31 -34 51 -86z m-1849 -517 c2 -233 0 -424 -3 -424 -13
0 -97 177 -122 255 -60 190 -62 420 -6 601 l20 64 54 -36 55 -37 2 -423z m501
426 c15 -12 31 -38 37 -58 13 -48 13 -466 0 -514 -17 -61 -49 -78 -146 -78
l-84 0 0 304 0 304 -42 31 -42 31 126 0 c111 0 128 -2 151 -20z"/>
</g>
</svg>
